<svg width="72" height="92" viewBox="0 0 72 92" fill="none" xmlns="http://www.w3.org/2000/svg">
<path d="M40.9133 78.5888C40.9633 78.3688 41.0033 78.1188 40.9433 77.9088C40.2133 75.3388 39.7433 72.6688 38.1633 70.4388C37.2233 69.1188 37.1933 67.9588 38.0733 66.6188C38.5833 65.8388 38.9033 64.9388 39.3733 63.9288C37.4033 63.9288 36.3633 62.5888 35.2033 61.4388C34.9133 61.1488 34.4933 60.9188 34.0933 60.8188C32.7033 60.4688 31.3033 60.1588 29.9033 59.8788C29.4833 59.7888 29.2633 59.5888 29.0933 59.2088C28.6533 58.2188 28.1633 57.2488 27.6933 56.2688C27.6533 56.2688 27.6033 56.2788 27.5633 56.2888V58.1488C27.0033 58.3488 26.7133 58.1488 26.4233 57.7588C25.1133 55.9488 23.7733 54.1688 22.4633 52.3488C22.2733 52.0788 22.1533 51.7088 22.1533 51.3788C22.1233 50.0088 22.1533 48.6388 22.1233 47.2688C22.1233 46.9488 22.0233 46.5988 21.8533 46.3288C20.9833 44.8588 20.0533 43.4288 19.2033 41.9488C18.8733 41.3688 18.5333 41.2188 17.8633 41.3488C15.6133 41.7688 13.3733 42.2388 11.0533 42.2388C9.76331 42.2388 8.87331 41.6888 7.89331 40.9688C8.61331 40.3888 9.31333 39.8288 10.0033 39.2688C9.36333 39.3288 8.76332 39.4388 8.18332 39.6088C8.00332 39.6588 7.81332 39.8088 7.71332 39.9688C5.95332 43.0388 4.69333 46.3088 4.04333 49.7988C3.76333 51.3088 3.61332 52.8388 3.40332 54.3488V57.7688C3.57332 59.0388 3.67333 60.3188 3.91333 61.5688C5.87333 71.8988 11.5033 79.5988 20.7133 84.6388C24.6633 86.7988 28.9233 87.9788 33.4233 88.2888C33.5833 88.2988 33.7533 88.3588 33.9133 88.3888H37.4533C38.2433 88.2888 39.0233 88.1888 39.8633 88.0788C39.8333 87.7388 39.8033 87.4288 39.7933 87.1188C39.7133 85.6588 39.4133 84.2088 39.8833 82.7388C40.3233 81.3788 40.5933 79.9688 40.9233 78.5788L40.9133 78.5888Z" fill="#7FA828"/>
<path d="M50.5634 37.5788C50.1234 37.2088 49.8534 36.7788 49.7134 36.2288C49.2234 34.3488 48.4334 32.7188 46.8334 31.4188C45.6234 30.4388 44.2734 30.5688 42.9934 30.1388C42.7734 31.0388 42.8735 31.6888 43.5735 32.2488C44.3035 32.8388 44.9634 33.5388 45.6134 34.2288C46.1934 34.8288 46.7234 35.4788 47.2534 36.0888C46.2434 37.0088 45.2134 37.1188 44.0834 36.5188C43.8234 36.3788 43.5535 36.2488 43.2635 36.1788C42.4935 35.9988 42.1935 35.5688 42.3535 34.7788C42.3935 34.5688 42.3334 34.1788 42.2034 34.1188C41.4234 33.7388 40.6035 33.4388 39.7635 33.0888C39.5335 34.0988 39.2534 35.0088 39.1134 35.9388C39.0034 36.6888 38.6634 37.0288 37.9334 37.1088C37.4134 37.1688 36.6434 37.1788 36.4634 37.4888C36.2134 37.9088 36.4034 38.5988 36.4534 39.1688C36.4634 39.3388 36.6235 39.5988 36.7635 39.6288C37.8035 39.8588 38.8535 40.0388 39.9435 40.2488C40.1535 39.0988 40.3534 38.0088 40.5634 36.8388C41.6034 37.0288 42.6734 37.0388 43.5534 37.4488C44.4434 37.8688 45.2834 38.1688 46.2534 38.0588C46.6934 38.0088 46.9534 38.1688 47.1134 38.5888C47.7734 40.2888 48.8334 41.7088 50.2034 42.9088C50.6634 43.3088 51.0634 43.7788 51.4934 44.2088C52.2434 44.9788 52.2934 45.3388 51.7134 46.4688C49.7334 45.6988 47.9735 46.3388 46.1335 47.2788C44.2335 48.2488 42.6134 49.4088 41.3434 51.1388C40.4334 52.3888 39.2035 53.4288 39.0735 55.1188C39.0735 55.2288 38.8534 55.4088 38.7534 55.3988C38.2134 55.3588 37.6634 55.3388 37.1534 55.1788C36.5334 54.9788 35.9634 54.6388 35.3634 54.3788C35.2034 54.3088 34.9834 54.2688 34.8334 54.3388C34.0634 54.6788 33.3134 55.0488 32.5234 55.4188C32.7334 56.2888 32.9234 57.1188 33.1234 57.9488L33.2434 58.1088C33.8134 56.6988 34.9034 56.6288 36.1534 56.8088C36.1134 57.5788 36.0734 58.3488 36.0334 59.1588C37.1034 59.2888 37.9834 59.7188 38.5334 60.6188C38.9634 61.3288 39.5034 61.3788 40.2334 61.1088C40.8334 60.8888 41.5134 60.6388 42.1234 60.7288C43.6634 60.9388 45.1734 61.3288 46.7034 61.6388C47.5834 61.8188 48.4835 61.9688 49.3535 62.1888C49.6935 62.2688 50.1034 62.4188 50.3034 62.6788C51.8834 64.7388 53.8134 66.3488 56.1434 67.4888C56.7834 67.7988 57.3834 68.2088 58.0034 68.5688C58.1634 68.6588 58.3034 68.7688 58.4834 68.8888C57.3034 71.1488 56.1534 73.3688 54.9734 75.5788C54.8734 75.7588 54.6534 75.8988 54.4534 75.9988C53.4634 76.4788 52.4534 76.9088 51.4834 77.4088C51.2234 77.5488 50.9735 77.8288 50.8535 78.1088C50.4535 79.0588 50.1534 80.0488 49.7534 80.9988C49.6134 81.3388 49.3534 81.6888 49.0534 81.8988C47.6934 82.8588 46.3434 83.8488 44.8934 84.6588C43.7634 85.2888 43.7634 86.3388 43.4534 87.3388C43.5834 87.3488 43.6235 87.3588 43.6635 87.3588C43.7435 87.3388 43.8234 87.3188 43.9034 87.2888C49.6634 85.7788 54.6534 82.9288 58.8334 78.6888C63.5734 73.8888 66.5334 68.1388 67.7034 61.4988C67.9434 60.1388 68.0334 58.7488 68.2034 57.3688V54.4588C68.1734 54.2488 68.1234 54.0488 68.1134 53.8388C67.7534 48.4588 66.1634 43.4788 63.3034 38.8988C62.9434 38.3188 62.4401 38.0988 61.7935 38.2388C61.6935 38.2588 61.5834 38.2588 61.4834 38.2688C60.0534 38.3988 58.6334 38.5388 57.2034 38.6388C56.7534 38.6688 56.4734 38.8388 56.2534 39.2288C55.9034 39.8488 55.5034 40.4388 55.0334 41.1688C54.4534 40.7888 53.8734 40.4788 53.3934 40.0788C52.4234 39.2688 51.5234 38.3788 50.5634 37.5588V37.5788Z" fill="#7FA828"/>
<path d="M35.9234 20.6288C41.6634 7.13879 50.6134 7.2288 50.6134 7.2288C40.6834 10.0688 37.1734 22.1988 37.1734 22.1988C50.4434 24.3688 54.4234 5.5688 54.4234 5.5688C54.4234 5.5688 44.5734 4.0088 38.9734 7.6388C33.3834 11.2788 35.9234 20.6188 35.9234 20.6188V20.6288Z" fill="#7FA828"/>
<path d="M20.4832 19.0588C25.2732 23.3988 33.9633 21.3888 33.9633 21.3888C34.3433 21.6988 34.8333 22.6188 35.2833 23.5988H33.7733C32.6933 23.7388 31.6033 23.8488 30.5333 24.0288C24.4833 25.0488 19.1333 27.5588 14.5233 31.5888C13.2533 32.6988 12.1033 33.9588 10.9033 35.1488C10.9433 35.1988 10.9833 35.2488 11.0233 35.2988C11.2233 35.2388 11.4233 35.1888 11.6133 35.1288C13.8733 34.4388 16.1433 33.7888 18.5033 33.5988C20.2333 33.4588 21.8733 33.0988 23.3033 32.0688C23.6933 31.7888 24.0633 31.8188 24.4933 31.9488C25.3433 32.1988 26.1933 32.5488 27.0533 32.5788C28.4133 32.6388 29.7933 32.4988 31.1533 32.3888C31.3933 32.3688 31.6933 32.1788 31.8433 31.9688C32.2633 31.3888 32.6033 30.7488 33.0233 30.1788C33.1433 30.0088 33.4533 29.8888 33.6633 29.8988C34.5033 29.9488 35.3433 30.1688 36.1633 30.1288C37.7833 30.0488 39.3933 29.8488 41.0133 29.6688C41.2533 29.6388 41.5133 29.4888 41.6933 29.3188C42.3133 28.7488 42.8933 28.1488 43.5033 27.5588C44.6233 26.4888 45.9033 26.2688 47.3833 26.6988C47.9933 26.8788 48.6833 26.7888 49.3333 26.8188C49.3333 26.7488 49.3433 26.6788 49.3533 26.6088C46.8033 25.4188 44.1433 24.5788 41.3733 24.0988C40.1933 23.8988 39.0033 23.7588 37.8233 23.5888H36.3433C28.3533 5.38879 10.0733 3.01879 10.0733 3.01879C22.6133 1.65879 34.1432 15.6388 34.1432 15.6388C33.6032 13.0488 35.4033 9.35879 35.4033 9.35879C23.1433 -7.19121 5.84326 3.24879 5.84326 3.24879C11.5833 5.74879 15.6932 14.6988 20.4832 19.0388V19.0588ZM27.5033 30.0088C27.3833 30.0388 27.2233 29.9488 27.1033 29.8888C26.5233 29.5588 25.9433 29.2088 25.3033 28.8388C26.0633 28.2488 26.7533 27.7088 27.4733 27.1588C27.4733 27.1588 27.5233 27.1588 27.5533 27.1688C28.4333 27.7488 29.3332 27.6788 30.2332 27.2588C30.6232 27.0788 30.8433 27.1788 31.0233 27.5588C31.2333 27.9888 31.5033 28.3988 31.7833 28.8888C30.3233 29.2788 28.9133 29.6588 27.5033 30.0088ZM40.2633 25.1288C40.3833 25.0688 40.5933 25.0788 40.7133 25.1388C41.3233 25.4688 41.9133 25.8188 42.5933 26.2188C41.5533 27.0088 40.6533 27.9288 39.5633 28.4388C38.7133 28.8388 37.6333 28.8188 36.6533 28.7888C36.2033 28.7788 35.7633 28.3088 35.1833 27.9688C35.7833 27.6288 36.3633 27.3088 36.9333 26.9788C37.0433 26.9588 37.1433 26.8888 37.2433 26.8088C38.2633 26.2288 39.2633 25.6688 40.2533 25.1188L40.2633 25.1288Z" fill="#7FA828"/>
<path d="M65.6334 36.1888C65.1734 35.4988 64.1034 35.8088 64.1034 36.6388C68.3334 42.7988 70.6134 50.4088 70.0134 58.5588C68.7534 75.8288 54.4834 89.5888 37.1834 90.2688C17.6534 91.0288 1.52336 75.3688 1.52336 55.9988C1.52336 48.8188 3.32335 42.7788 7.11335 37.2588C7.11335 36.4188 6.02337 36.1188 5.57337 36.8188C1.71337 42.8788 -0.366646 50.1788 0.0533543 57.9688C1.02335 75.7988 15.2734 90.3688 33.0734 91.7088C54.0634 93.2888 71.6433 76.6488 71.6433 55.9888C71.6433 48.6688 69.4333 41.8588 65.6433 36.1788L65.6334 36.1888Z" fill="#7FA828"/>
</svg>
